<svg width="914" height="264" viewBox="0 0 914 264" fill="none" xmlns="http://www.w3.org/2000/svg">
<path d="M134.4 259.2H-9.62615e-05V10.8H138.4L134.4 72H68.3999V109.2H125.6V162H68.3999V203.2H138.4L134.4 259.2ZM402.119 259.2H339.319V129.6H335.719L312.119 259.2H247.719L225.319 129.6H221.319V259.2H159.319L167.719 10.8H257.719L280.119 145.2H283.319L304.919 10.8H393.719L402.119 259.2ZM694.75 259.2H619.15L589.15 165.6H585.15V259.2H518.75V10.8H585.15V114.8H589.15L625.15 10.8H698.75L650.35 139.2L694.75 259.2ZM774.891 259.2H708.891V69.6H774.891V259.2ZM714.091 54.4C708.491 49.6 705.691 41.8667 705.691 31.2C705.691 20.5333 708.491 12.6667 714.091 7.6C719.691 2.53333 728.891 0 741.691 0C754.491 0 763.691 2.53333 769.291 7.6C774.891 12.6667 777.691 20.5333 777.691 31.2C777.691 41.6 774.891 49.3333 769.291 54.4C763.691 59.2 754.491 61.6 741.691 61.6C728.891 61.6 719.691 59.2 714.091 54.4ZM908.259 259.6C888.526 262 871.326 263.2 856.659 263.2C842.259 263.2 830.926 259.467 822.659 252C814.659 244.267 810.659 231.067 810.659 212.4V119.6H791.459V70H813.859L817.459 33.2H877.859V70H913.459L910.659 119.6H877.459V199.2C877.459 204.8 880.126 207.6 885.459 207.6C885.993 207.6 894.259 207.2 910.259 206.4L908.259 259.6Z" fill="white"/>
</svg>
